<?xml version="1.0" standalone="no"?>
<!DOCTYPE svg PUBLIC "-//W3C//DTD SVG 20010904//EN"
 "http://www.w3.org/TR/2001/REC-SVG-20010904/DTD/svg10.dtd">
<svg version="1.0" xmlns="http://www.w3.org/2000/svg"
 width="500.000000pt" height="500.000000pt" viewBox="0 0 500.000000 500.000000"
 preserveAspectRatio="xMidYMid meet">
<metadata>
Created by potrace 1.11, written by Peter Selinger 2001-2013
</metadata>
<g transform="translate(0.000000,500.000000) scale(0.100000,-0.100000)"
fill="#000000" stroke="none">
<path d="M0 2500 l0 -2500 2500 0 2500 0 0 2500 0 2500 -2500 0 -2500 0 0
-2500z m4990 0 l0 -2490 -2490 0 -2490 0 0 2490 0 2490 2490 0 2490 0 0 -2490z"/>
<path d="M710 2500 l0 -840 1790 0 1790 0 0 840 0 840 -1790 0 -1790 0 0 -840z
m3490 0 l0 -760 -1700 0 -1700 0 0 760 0 760 1700 0 1700 0 0 -760z"/>
<path d="M1050 2490 l0 -430 70 0 70 0 0 337 c0 185 2 334 6 331 4 -5 174
-653 174 -666 0 -1 28 -2 62 0 l62 3 85 332 c47 183 89 333 94 333 4 0 6 -151
5 -335 l-3 -335 68 0 67 0 0 430 0 430 -113 0 -114 0 -22 -87 c-41 -169 -121
-467 -126 -472 -8 -7 -9 -3 -54 169 -24 91 -56 216 -73 278 l-30 112 -114 0
-114 0 0 -430z"/>
<path d="M1970 2490 l0 -430 230 0 230 0 0 70 0 69 -147 3 -148 3 -3 113 -3
112 111 0 110 0 0 70 0 69 -107 3 -108 3 0 100 0 100 143 3 142 3 0 69 0 70
-225 0 -225 0 0 -430z"/>
<path d="M2580 2490 l0 -430 70 0 70 0 0 337 c0 185 2 334 4 332 3 -2 39 -137
81 -299 42 -162 81 -312 86 -333 l10 -38 61 3 61 3 86 334 86 334 3 -337 2
-336 70 0 70 0 0 430 0 430 -112 0 -113 0 -31 -118 c-18 -64 -51 -190 -74
-279 -24 -90 -46 -163 -49 -163 -4 0 -15 33 -25 73 -10 39 -40 153 -66 252
-26 99 -50 192 -54 208 l-6 27 -115 0 -115 0 0 -430z"/>
<path d="M3507 2913 c-4 -3 -7 -197 -7 -430 l0 -423 230 0 230 0 0 70 0 69
-147 3 -148 3 -3 113 -3 112 111 0 110 0 0 70 0 69 -107 3 -108 3 0 100 0 100
143 3 142 3 0 69 0 70 -218 0 c-120 0 -222 -3 -225 -7z"/>
</g>
</svg>
